<svg width="78" height="91" xmlns="http://www.w3.org/2000/svg" xmlns:xlink="http://www.w3.org/1999/xlink"><defs><path d="M179.892 24.268a25.494 25.494 0 0 0-18.158 7.572c-10.012 10.095-10.012 26.52 0 36.615l18.158 18.308 18.16-18.308c10.01-10.095 10.01-26.52 0-36.615a25.497 25.497 0 0 0-18.16-7.572m0 69.95l-21.855-22.036c-12.05-12.15-12.05-31.92 0-44.07 12.052-12.149 31.66-12.15 43.71 0 12.052 12.15 12.052 31.92 0 44.07l-21.855 22.035m5.69-32.48c1.539-1.572 2.308-3.448 2.308-5.73 0-2.282-.77-4.158-2.307-5.68-1.538-1.571-3.435-2.332-5.69-2.332-2.306 0-4.203.76-5.74 2.333-1.488 1.52-2.256 3.397-2.256 5.679 0 2.282.768 4.158 2.255 5.73 1.538 1.522 3.435 2.282 5.74 2.282 2.256 0 4.153-.76 5.69-2.282m-19.786-5.73c0-3.803 1.386-7.048 4.101-9.635 2.717-2.586 6.049-3.904 9.996-3.904s7.278 1.318 9.996 3.904c2.717 2.587 4.1 5.832 4.1 9.635s-1.383 7.048-4.1 9.634c-2.718 2.587-6.049 3.905-9.996 3.905s-7.279-1.318-9.996-3.905c-2.715-2.586-4.1-5.83-4.1-9.634zm5.399-17.15v-5.415h17.396v5.415h-17.396z" id="b"/><filter x="-19.4%" y="-16%" width="138.8%" height="131.9%" filterUnits="objectBoundingBox" id="a"><feOffset in="SourceAlpha" result="shadowOffsetOuter1"/><feGaussianBlur stdDeviation="4" in="shadowOffsetOuter1" result="shadowBlurOuter1"/><feColorMatrix values="0 0 0 0 0 0 0 0 0 0 0 0 0 0 0 0 0 0 0.25 0" in="shadowBlurOuter1"/></filter></defs><g transform="translate(-141 -11)" fill="none" fill-rule="evenodd"><use fill="#000" filter="url(#a)" xlink:href="#b"/><use fill="#FFF" xlink:href="#b"/></g></svg>